<svg width="23" height="28" viewBox="0 0 23 28" fill="none" xmlns="http://www.w3.org/2000/svg">
<path d="M19.1634 26.2041C17.6773 27.6447 16.0547 27.4173 14.4928 26.7349C12.8398 26.0373 11.3234 26.007 9.57948 26.7349C7.39581 27.6751 6.24331 27.4021 4.93917 26.2041C-2.46107 18.5764 -1.36923 6.96047 7.03186 6.53587C9.07906 6.64202 10.5045 7.65803 11.7025 7.74902C13.4919 7.38507 15.2055 6.33873 17.1162 6.47521C19.406 6.65718 21.1348 7.56705 22.2721 9.20481C17.5408 12.0406 18.663 18.2731 23 20.017C22.1356 22.2917 21.0135 24.5512 19.1482 26.2193L19.1634 26.2041ZM11.5509 6.44488C11.3234 3.06321 14.0682 0.27296 17.2224 0C17.6621 3.91242 13.6739 6.82399 11.5509 6.44488Z" fill="#121212"/>
</svg>
