<svg width="25" height="24" viewBox="0 0 25 24" fill="none" xmlns="http://www.w3.org/2000/svg">
<mask id="mask0_70_182" style="mask-type:alpha" maskUnits="userSpaceOnUse" x="0" y="0" width="25" height="24">
<rect x="0.333336" width="24" height="24" fill="#D9D9D9"/>
</mask>
<g mask="url(#mask0_70_182)">
<path fill-rule="evenodd" clip-rule="evenodd" d="M3.58334 17.4755V11.5851C3.58334 10.9966 3.58334 10.7022 3.65643 10.4283C3.7212 10.1856 3.82835 9.95593 3.97225 9.74839C4.13463 9.5142 4.36031 9.31999 4.81271 8.93244L10.2145 4.30489C11.0532 3.58643 11.4725 3.22718 11.9448 3.09043C12.3613 2.96985 12.8052 2.96985 13.2216 3.09043C13.6943 3.22728 14.1142 3.58687 14.9542 4.30642L20.3542 8.93244C20.8066 9.31999 21.0323 9.5142 21.1947 9.74839C21.3386 9.95593 21.445 10.1856 21.5097 10.4283C21.5828 10.7022 21.5833 10.9966 21.5833 11.5851V17.4794C21.5833 18.7107 21.5833 19.327 21.3383 19.7978C21.1226 20.2123 20.7775 20.5489 20.3542 20.7601C19.8733 21 19.2445 21 17.9868 21H15.5833V17C15.5833 15.3431 14.2402 14 12.5833 14C10.9265 14 9.58334 15.3431 9.58334 17V21H7.17986C5.9222 21 5.29244 21 4.81161 20.7601C4.38824 20.5489 4.04429 20.2123 3.82857 19.7978C3.58334 19.3265 3.58334 18.7092 3.58334 17.4755Z" fill="#717577"/>
</g>
</svg>
