<svg width="20" height="27" viewBox="0 0 20 27" fill="none" xmlns="http://www.w3.org/2000/svg">
<path d="M9.76796 6.09511C10.7538 6.09511 11.6992 6.45868 12.3963 7.10583C13.0933 7.75297 13.485 8.6307 13.485 9.5459C13.485 9.99907 13.3888 10.4478 13.202 10.8665C13.0152 11.2851 12.7414 11.6655 12.3963 11.986C12.0511 12.3064 11.6414 12.5606 11.1904 12.734C10.7394 12.9074 10.2561 12.9967 9.76796 12.9967C8.78215 12.9967 7.83672 12.6331 7.13964 11.986C6.44257 11.3388 6.05096 10.4611 6.05096 9.5459C6.05096 8.6307 6.44257 7.75297 7.13964 7.10583C7.83672 6.45868 8.78215 6.09511 9.76796 6.09511ZM9.76796 7.47543C9.17647 7.47543 8.60921 7.69357 8.19097 8.08186C7.77273 8.47015 7.53776 8.99678 7.53776 9.5459C7.53776 10.095 7.77273 10.6217 8.19097 11.0099C8.60921 11.3982 9.17647 11.6164 9.76796 11.6164C10.3594 11.6164 10.9267 11.3982 11.3449 11.0099C11.7632 10.6217 11.9982 10.095 11.9982 9.5459C11.9982 8.99678 11.7632 8.47015 11.3449 8.08186C10.9267 7.69357 10.3594 7.47543 9.76796 7.47543ZM2.78 13.4936L9.76796 24.1634L16.7559 13.4936C17.5142 12.3065 17.9454 10.9952 17.9454 9.5459C17.9454 7.53245 17.0838 5.60146 15.5503 4.17774C14.0167 2.75401 11.9367 1.95417 9.76796 1.95417C7.59918 1.95417 5.51922 2.75401 3.98566 4.17774C2.4521 5.60146 1.59056 7.53245 1.59056 9.5459C1.59056 10.9952 2.02173 12.3065 2.78 13.4936ZM18.0197 14.2114L9.76796 26.7998L1.51622 14.2114C0.624139 12.8449 0.10376 11.2575 0.10376 9.5459C0.10376 7.16637 1.12195 4.88429 2.93434 3.2017C4.74673 1.51912 7.20485 0.573853 9.76796 0.573853C12.3311 0.573853 14.7892 1.51912 16.6016 3.2017C18.414 4.88429 19.4322 7.16637 19.4322 9.5459C19.4322 11.2575 18.9118 12.8449 18.0197 14.2114Z" fill="#FD7E14"/>
</svg>
