<svg width="24" height="24" viewBox="0 0 24 24" fill="none" xmlns="http://www.w3.org/2000/svg">
<mask id="mask0_366_246" style="mask-type:alpha" maskUnits="userSpaceOnUse" x="0" y="0" width="24" height="24">
<rect width="24" height="24" fill="#D9D9D9"/>
</mask>
<g mask="url(#mask0_366_246)">
<path d="M14.0001 14.702V1.80398C13.4671 2.06398 12.9441 2.47398 12.3501 2.96598L12.1891 3.09998C11.4431 3.71998 10.5651 4.45198 9.50012 4.80198V17.701C10.0341 17.44 10.5561 17.03 11.1501 16.539L11.3111 16.404C12.0571 15.784 12.9351 15.053 14.0001 14.702ZM18.0921 0.755985C18.3991 0.878985 18.6781 0.990985 18.9441 1.08198L18.9811 1.09498C19.4441 1.25498 19.8511 1.39498 20.1731 1.55098C20.5241 1.71999 20.8411 1.93598 21.0831 2.28298C21.3231 2.62698 21.4171 3.00098 21.4601 3.38998C21.5001 3.75298 21.5001 4.19398 21.5001 4.70098V13.205C21.5001 13.931 21.5001 14.539 21.4461 15.018C21.3911 15.513 21.2671 15.999 20.9201 16.393C20.7119 16.6272 20.4581 16.8164 20.1741 16.949C19.6391 17.196 19.0931 17.202 18.6001 17.117C18.1171 17.034 17.6401 16.854 17.2201 16.68C17.0801 16.622 16.9461 16.5657 16.8181 16.511C16.5381 16.392 16.2821 16.283 16.0191 16.191C15.6451 16.058 15.3521 15.997 15.1171 16.005C14.9704 16.009 14.8245 16.0291 14.6821 16.065C13.8151 16.278 13.0831 16.884 12.1781 17.635L12.1061 17.694C11.2321 18.418 10.1731 19.282 8.80812 19.471C8.38012 19.531 7.83312 19.493 7.28112 19.409C6.67023 19.3121 6.06703 19.1717 5.47612 18.989C4.87454 18.8085 4.2913 18.5718 3.73412 18.282C3.22912 18.013 2.72612 17.665 2.41712 17.222C2.17712 16.877 2.08312 16.503 2.04012 16.114C2.00012 15.751 2.00012 15.311 2.00012 14.803V6.29898C2.00012 5.57298 2.00012 4.96498 2.05412 4.48598C2.10912 3.99098 2.23312 3.50498 2.58012 3.11098C2.78812 2.87598 3.04112 2.68598 3.32612 2.55498C3.86112 2.30798 4.40712 2.30198 4.90012 2.38698C5.38312 2.47098 5.86012 2.64998 6.28012 2.82398L6.68212 2.99298C6.96212 3.11298 7.21812 3.22098 7.48112 3.31298C7.85612 3.44598 8.14812 3.50798 8.38312 3.49898C8.52979 3.49365 8.67479 3.47365 8.81812 3.43898C9.68512 3.22598 10.4171 2.61998 11.3221 1.86898L11.3941 1.80998C12.2681 1.08698 13.3271 0.222985 14.6921 0.0329848C15.5101 -0.0800152 16.3191 0.114985 17.0181 0.349985C17.3721 0.469985 17.7201 0.607985 18.0401 0.735985L18.0921 0.755985Z" fill="#717577"/>
</g>
</svg>
