<svg width="25" height="24" viewBox="0 0 25 24" fill="none" xmlns="http://www.w3.org/2000/svg">
<mask id="mask0_366_251" style="mask-type:alpha" maskUnits="userSpaceOnUse" x="0" y="0" width="25" height="24">
<rect x="0.666626" width="24" height="24" fill="#D9D9D9"/>
</mask>
<g mask="url(#mask0_366_251)">
<path d="M6.66663 14C6.11663 14 5.64579 13.8042 5.25413 13.4125C4.86246 13.0208 4.66663 12.55 4.66663 12C4.66663 11.45 4.86246 10.9792 5.25413 10.5875C5.64579 10.1958 6.11663 10 6.66663 10C7.21663 10 7.68746 10.1958 8.07913 10.5875C8.47079 10.9792 8.66663 11.45 8.66663 12C8.66663 12.55 8.47079 13.0208 8.07913 13.4125C7.68746 13.8042 7.21663 14 6.66663 14ZM12.6666 14C12.1166 14 11.6458 13.8042 11.2541 13.4125C10.8625 13.0208 10.6666 12.55 10.6666 12C10.6666 11.45 10.8625 10.9792 11.2541 10.5875C11.6458 10.1958 12.1166 10 12.6666 10C13.2166 10 13.6875 10.1958 14.0791 10.5875C14.4708 10.9792 14.6666 11.45 14.6666 12C14.6666 12.55 14.4708 13.0208 14.0791 13.4125C13.6875 13.8042 13.2166 14 12.6666 14ZM18.6666 14C18.1166 14 17.6458 13.8042 17.2541 13.4125C16.8625 13.0208 16.6666 12.55 16.6666 12C16.6666 11.45 16.8625 10.9792 17.2541 10.5875C17.6458 10.1958 18.1166 10 18.6666 10C19.2166 10 19.6875 10.1958 20.0791 10.5875C20.4708 10.9792 20.6666 11.45 20.6666 12C20.6666 12.55 20.4708 13.0208 20.0791 13.4125C19.6875 13.8042 19.2166 14 18.6666 14Z" fill="#717577"/>
</g>
</svg>
